<?xml version="1.0" encoding="UTF-8"?>
<svg id="Layer_2" data-name="Layer 2" xmlns="http://www.w3.org/2000/svg" xmlns:xlink="http://www.w3.org/1999/xlink" viewBox="0 0 167.42 167.42">
  <defs>
    <style>
      .cls-1 {
        fill: url(#linear-gradient-2);
      }

      .cls-2 {
        fill: url(#linear-gradient);
      }

      .cls-3 {
        fill: #fff;
      }

      .cls-4 {
        fill: #004eeb;
      }
    </style>
    <linearGradient id="linear-gradient" x1="44.38" y1="80.18" x2="120.2" y2="119.59" gradientUnits="userSpaceOnUse">
      <stop offset="0" stop-color="#004eeb"/>
      <stop offset=".06" stop-color="#0956ed"/>
      <stop offset=".17" stop-color="#246df4"/>
      <stop offset=".3" stop-color="#4d90ff"/>
      <stop offset="1" stop-color="#4d90ff"/>
    </linearGradient>
    <linearGradient id="linear-gradient-2" x1="97.15" y1="94.01" x2="163.68" y2="121.15" gradientUnits="userSpaceOnUse">
      <stop offset="0" stop-color="#004eeb"/>
      <stop offset=".03" stop-color="#0754ec"/>
      <stop offset=".16" stop-color="#206af3"/>
      <stop offset=".29" stop-color="#347bf8"/>
      <stop offset=".45" stop-color="#4286fc"/>
      <stop offset=".65" stop-color="#4a8dfe"/>
      <stop offset="1" stop-color="#4d90ff"/>
      <stop offset="1" stop-color="#4d90ff"/>
      <stop offset="1" stop-color="#4d90ff"/>
      <stop offset="1" stop-color="#4d90ff"/>
      <stop offset="1" stop-color="#4d90ff"/>
    </linearGradient>
  </defs>
  <g id="Layer_4" data-name="Layer 4">
    <g>
      <rect class="cls-3" width="167.42" height="167.42" rx="26.62" ry="26.62"/>
      <g>
        <path class="cls-2" d="M121.95,99.43c-2.1,25.52-7.86,48.04-21.08,53.21-21.3,8.34-39.67-14.78-51.09-38.47-.86-1.79-1.69-3.58-2.47-5.36-5.3-12.09-8.7-23.72-9.65-30.73-1.66-12.14-6.39-56.26,29.23-38.75,7.66,3.76,14.9,8.76,21.71,14.56l-5.63,7.5c-4.47-3.06-9.13-5.82-13.97-8.2-35.63-17.51-16.36,35.19-16.36,35.19,0,0,1.23,3.73,3.47,8.74.92,2.04,2,4.29,3.23,6.59,7.33,13.64,20.04,28.97,35.13,11.68,5.89-6.75,9.77-20.36,12.27-33.66,5.52,5.72,10.6,11.71,15.22,17.7Z"/>
        <path class="cls-1" d="M154.6,154.15c-.73-1.68-12.29-28.23-32.87-54.88-4.62-5.99-9.7-11.99-15.22-17.7-4.64-4.81-9.58-9.42-14.83-13.67-2.89-2.34-5.87-4.57-8.94-6.67l5.63-7.5c3.02,2.57,5.95,5.31,8.78,8.16,3.73,3.74,7.29,7.7,10.69,11.78,5.16,6.19,9.95,12.67,14.33,19.16,20.1,29.75,31.73,59.53,32.41,61.31Z"/>
        <path class="cls-4" d="M122.17,93.22c-4.38-6.48-9.17-12.97-14.33-19.16,2.22-14.41,2.88-26.64,2.88-26.64l-13.56,14.85-5.48,6.01-32.57,35.65-9.55,10.46-36.74,40.22,34.27-45.59,8.79-11.69,26.86-35.73,5.63-7.5,31.05-41.3s5,42.17,2.75,80.41Z"/>
      </g>
    </g>
  </g>
</svg>